<svg width="35" height="35" viewBox="0 0 35 35" fill="none" xmlns="http://www.w3.org/2000/svg">
<path d="M22.75 35C22.5 35 12.25 35 12.25 35H3.5C2.57174 35 1.6815 34.625 1.02513 33.9576C0.368749 33.2901 1.62061e-10 32.3848 1.62061e-10 31.4409V12.1009C-5.8148e-06 11.4863 0.156504 10.8822 0.454288 10.3473C0.752072 9.8125 1.18098 9.3652 1.69925 9.04899L15.6992 0.507203C16.2432 0.175316 16.8656 0 17.5 0C18.1344 0 18.7568 0.175316 19.3008 0.507203L33.3008 9.04899C33.819 9.3652 34.2479 9.8125 34.5457 10.3473C34.8435 10.8822 35 11.4863 35 12.1009V31.4409C35 32.3848 34.6312 33.2901 33.9749 33.9576C33.3185 34.625 32.4283 35 31.5 35H22.75Z" fill="#E0A166"/>
<path d="M17.179 13.7973L18.0177 14.641L18.8564 13.7985C19.4063 13.2413 20.0603 12.7986 20.781 12.496C21.5016 12.1933 22.2747 12.0367 23.0557 12.0349C23.8368 12.0332 24.6106 12.1865 25.3325 12.486C26.0545 12.7854 26.7105 13.2252 27.2628 13.78C27.8151 14.3348 28.2529 14.9938 28.551 15.719C28.8491 16.4442 29.0017 17.2215 29 18.0061C28.9983 18.7907 28.8423 19.5673 28.541 20.2912C28.2397 21.0151 27.7991 21.6721 27.2444 22.2245L18.8576 30.6505C18.7474 30.7613 18.6166 30.8492 18.4725 30.9092C18.3285 30.9691 18.1742 31 18.0183 31C17.8624 31 17.708 30.9691 17.564 30.9092C17.42 30.8492 17.2892 30.7613 17.179 30.6505L8.79101 22.2245C8.22874 21.6739 7.7809 21.0166 7.47348 20.2908C7.16605 19.565 7.00515 18.7851 7.00012 17.9963C6.99509 17.2075 7.14602 16.4256 7.44417 15.6959C7.74231 14.9662 8.18173 14.3032 8.73693 13.7454C9.29213 13.1876 9.95207 12.7461 10.6785 12.4465C11.4048 12.1469 12.1832 11.9952 12.9684 12.0001C13.7536 12.0051 14.5301 12.1666 15.2527 12.4753C15.9752 12.784 16.6296 13.2338 17.1778 13.7985L17.179 13.7973Z" fill="white"/>
</svg>
