<svg width="35" height="30" viewBox="0 0 35 30" fill="none" xmlns="http://www.w3.org/2000/svg">
<path d="M16.1939 2.80151L17.5281 4.11654L18.8624 2.80337C19.7372 1.93479 20.7778 1.24483 21.9242 0.773101C23.0707 0.301369 24.3006 0.0571531 25.5432 0.054475C26.7859 0.0517969 28.0168 0.290709 29.1654 0.757495C30.314 1.22428 31.3575 1.90975 32.2362 2.77454C33.1149 3.63934 33.8114 4.66643 34.2857 5.79685C34.76 6.92727 35.0027 8.13876 35 9.36176C34.9973 10.5848 34.7491 11.7952 34.2698 12.9236C33.7905 14.0519 33.0895 15.076 32.2069 15.937L18.8643 29.0706C18.689 29.2433 18.4809 29.3803 18.2518 29.4738C18.0227 29.5673 17.7771 29.6154 17.5291 29.6154C17.2811 29.6154 17.0355 29.5673 16.8064 29.4738C16.5773 29.3803 16.3691 29.2433 16.1939 29.0706L2.84934 15.937C1.95482 15.0788 1.24234 14.0543 0.753256 12.9229C0.264168 11.7916 0.00819757 10.5759 0.000193696 9.34647C-0.00781018 8.11701 0.232312 6.89822 0.70663 5.76081C1.18095 4.62339 1.88002 3.58999 2.7633 2.72056C3.64657 1.85112 4.69647 1.16294 5.85208 0.695961C7.0077 0.228978 8.24602 -0.00752118 9.49523 0.000182311C10.7444 0.0078858 11.9796 0.259639 13.1292 0.740838C14.2788 1.22204 15.3199 1.9231 16.192 2.80337L16.1939 2.80151Z" fill="#AF35AF"/>
</svg>
