<svg width="35" height="29" viewBox="0 0 35 29" fill="none" xmlns="http://www.w3.org/2000/svg">
<path d="M3.02192 2.21153L9.9447 8.40782L16.1124 0.682821C16.2851 0.466858 16.5035 0.293312 16.7513 0.175108C16.9991 0.0569029 17.2699 -0.00291474 17.5436 0.000109196C17.8172 0.00313313 18.0867 0.0689208 18.3319 0.192573C18.5771 0.316225 18.7917 0.494555 18.9598 0.714283L24.8455 8.40597L31.9921 2.12085C32.2727 1.87453 32.6206 1.72129 32.9893 1.68163C33.3579 1.64198 33.7296 1.71779 34.0547 1.89894C34.3798 2.08009 34.6427 2.35792 34.8083 2.69525C34.9739 3.03259 35.0343 3.41333 34.9813 3.78652L32.2523 22.9361H2.79085L0.0199206 3.8735C-0.0351211 3.49824 0.0245504 3.11483 0.190853 2.77521C0.357156 2.4356 0.622053 2.15618 0.949667 1.9748C1.27728 1.79343 1.65178 1.71886 2.02244 1.76121C2.3931 1.80355 2.74201 1.96076 3.02192 2.21153ZM2.93277 24.7869H32.043V26.6376C32.043 27.1285 31.8513 27.5992 31.5101 27.9463C31.1689 28.2934 30.7062 28.4884 30.2236 28.4884H4.75216C4.26962 28.4884 3.80685 28.2934 3.46565 27.9463C3.12445 27.5992 2.93277 27.1285 2.93277 26.6376V24.7869Z" fill="#E1E14C"/>
</svg>
