<svg width="32" height="35" viewBox="0 0 32 35" fill="none" xmlns="http://www.w3.org/2000/svg">
<path d="M17.2333 35H14.5821C13.8789 35 13.2046 34.7163 12.7074 34.2114C12.2102 33.7065 11.9309 33.0217 11.9309 32.3077L11.935 25.0873C11.9351 25.0281 11.9199 24.97 11.8908 24.9188C11.8618 24.8676 11.8199 24.825 11.7695 24.7954C11.7191 24.7658 11.662 24.7502 11.6037 24.7502C11.5455 24.7502 11.4883 24.7658 11.4379 24.7953L5.27883 28.4181C4.67983 28.7693 3.96799 28.8645 3.2999 28.6827C2.6318 28.501 2.06216 28.0572 1.71627 27.4489L0.349239 25.0393L0.344268 25.0309C0.00769381 24.4229 -0.0805279 23.705 0.0985672 23.0317C0.277662 22.3583 0.709775 21.7832 1.30202 21.4299L7.48348 17.7911C7.5337 17.7615 7.57538 17.7191 7.60436 17.668C7.63334 17.6169 7.64859 17.559 7.64859 17.5C7.64859 17.441 7.63334 17.3831 7.60436 17.332C7.57538 17.2809 7.5337 17.2385 7.48348 17.2089L1.30782 13.5734C1.01047 13.4003 0.749733 13.1692 0.540586 12.8934C0.331439 12.6176 0.178001 12.3026 0.0890845 11.9665C0.000167575 11.6303 -0.0224763 11.2796 0.0224532 10.9345C0.0673826 10.5895 0.179001 10.2568 0.350896 9.95565L1.71295 7.55361C1.88506 7.24993 2.1148 6.98395 2.38885 6.77108C2.6629 6.5582 2.97582 6.40266 3.30948 6.31346C3.63934 6.22357 3.98349 6.20107 4.32198 6.24729C4.66047 6.29351 4.98655 6.40751 5.28132 6.58269L11.4379 10.2005C11.4883 10.23 11.5455 10.2456 11.6037 10.2456C11.662 10.2455 11.7191 10.23 11.7695 10.2004C11.8199 10.1708 11.8618 10.1282 11.8908 10.077C11.9199 10.0257 11.9351 9.96765 11.935 9.90853L11.9309 2.69231C11.9309 1.97826 12.2102 1.29346 12.7074 0.788559C13.2046 0.283653 13.8789 0 14.5821 0H17.2333C17.9364 0 18.6108 0.283653 19.108 0.788559C19.6052 1.29346 19.8845 1.97826 19.8845 2.69231V9.90433C19.8844 9.96344 19.8997 10.0215 19.9287 10.0728C19.9578 10.124 19.9996 10.1666 20.05 10.1961C20.1004 10.2257 20.1576 10.2413 20.2158 10.2414C20.274 10.2414 20.3312 10.2258 20.3816 10.1963L26.5407 6.57344C27.1399 6.22295 27.8515 6.12816 28.5194 6.30986C29.1873 6.49157 29.7569 6.93494 30.1033 7.54267L31.4695 9.95228L31.4744 9.95986C31.8149 10.5685 31.9045 11.2891 31.7239 11.9646C31.5432 12.6401 31.1069 13.2157 30.5101 13.5659L24.3352 17.2005C24.285 17.2301 24.2433 17.2725 24.2143 17.3236C24.1854 17.3747 24.1701 17.4326 24.1701 17.4916C24.1701 17.5505 24.1854 17.6085 24.2143 17.6596C24.2433 17.7106 24.285 17.7531 24.3352 17.7827L30.5101 21.4173C30.8074 21.5905 31.0681 21.8216 31.2773 22.0973C31.4865 22.3731 31.6399 22.688 31.7289 23.0242C31.8179 23.3603 31.8407 23.711 31.7958 24.0561C31.751 24.4012 31.6396 24.7339 31.4678 25.0351L30.1057 27.4371C29.9336 27.7408 29.7039 28.0068 29.4299 28.2197C29.1558 28.4325 28.8429 28.5881 28.5092 28.6773C28.1794 28.7672 27.8352 28.7897 27.4967 28.7435C27.1582 28.6972 26.8321 28.5832 26.5374 28.4081L20.3808 24.7903C20.3304 24.7607 20.2733 24.7452 20.2152 24.7452C20.157 24.7452 20.0999 24.7607 20.0495 24.7902C19.9992 24.8197 19.9573 24.8621 19.9282 24.9132C19.8991 24.9643 19.8837 25.0223 19.8837 25.0814L19.8845 32.3077C19.8845 33.0217 19.6052 33.7065 19.108 34.2114C18.6108 34.7163 17.9364 35 17.2333 35Z" fill="#AF3535"/>
</svg>
