<svg width="24" height="35" viewBox="0 0 24 35" fill="none" xmlns="http://www.w3.org/2000/svg">
<path d="M11.9318 35C3.9767 24.3425 0 16.7597 0 12.25C0 9.0011 1.2571 5.88526 3.49475 3.58794C5.7324 1.29062 8.7673 0 11.9318 0C15.0963 0 18.1312 1.29062 20.3689 3.58794C22.6065 5.88526 23.8636 9.0011 23.8636 12.25C23.8636 16.7597 19.8869 24.3425 11.9318 35ZM11.9318 19.25C13.7401 19.25 15.4743 18.5125 16.753 17.1997C18.0317 15.887 18.75 14.1065 18.75 12.25C18.75 10.3935 18.0317 8.61301 16.753 7.30025C15.4743 5.9875 13.7401 5.25 11.9318 5.25C10.1235 5.25 8.38929 5.9875 7.11063 7.30025C5.83198 8.61301 5.11364 10.3935 5.11364 12.25C5.11364 14.1065 5.83198 15.887 7.11063 17.1997C8.38929 18.5125 10.1235 19.25 11.9318 19.25V19.25Z" fill="#7DB37B"/>
</svg>
