<svg width="35" height="35" viewBox="0 0 35 35" fill="none" xmlns="http://www.w3.org/2000/svg">
<path d="M12.2494 22.6036V23.6238C12.2494 25.7123 13.079 27.7152 14.5558 29.192C16.0326 30.6688 18.0355 31.4984 20.124 31.4984C22.2125 31.4984 24.2154 30.6688 25.6922 29.192C27.1689 27.7152 27.9986 25.7123 27.9986 23.6238V20.7015C26.8305 20.2886 25.846 19.4762 25.2191 18.4077C24.5922 17.3391 24.3632 16.0834 24.5726 14.8624C24.782 13.6413 25.4164 12.5337 26.3635 11.7351C27.3107 10.9366 28.5096 10.4986 29.7485 10.4986C30.9874 10.4986 32.1863 10.9366 33.1335 11.7351C34.0806 12.5337 34.715 13.6413 34.9244 14.8624C35.1338 16.0834 34.9048 17.3391 34.2779 18.4077C33.651 19.4762 32.6665 20.2886 31.4984 20.7015V23.6238C31.4984 26.6405 30.3 29.5336 28.1669 31.6667C26.0338 33.7999 23.1407 34.9982 20.124 34.9982C17.1073 34.9982 14.2142 33.7999 12.0811 31.6667C9.94793 29.5336 8.74956 26.6405 8.74956 23.6238V22.6036C6.30306 22.1894 4.08222 20.9223 2.48067 19.0271C0.879131 17.1318 0.000318272 14.7307 0 12.2494L0 3.49982C0 2.57161 0.36873 1.68142 1.02507 1.02507C1.68142 0.36873 2.57161 0 3.49982 0L5.24974 0C5.71384 0 6.15894 0.184365 6.48711 0.512537C6.81528 0.840709 6.99965 1.28581 6.99965 1.74991C6.99965 2.21402 6.81528 2.65911 6.48711 2.98729C6.15894 3.31546 5.71384 3.49982 5.24974 3.49982H3.49982V12.2494C3.49982 14.1058 4.23728 15.8862 5.54997 17.1989C6.86266 18.5116 8.64305 19.249 10.4995 19.249C12.3559 19.249 14.1363 18.5116 15.449 17.1989C16.7617 15.8862 17.4991 14.1058 17.4991 12.2494V3.49982H15.7492C15.2851 3.49982 14.84 3.31546 14.5118 2.98729C14.1837 2.65911 13.9993 2.21402 13.9993 1.74991C13.9993 1.28581 14.1837 0.840709 14.5118 0.512537C14.84 0.184365 15.2851 0 15.7492 0L17.4991 0C18.4273 0 19.3175 0.36873 19.9739 1.02507C20.6302 1.68142 20.9989 2.57161 20.9989 3.49982V12.2494C20.9986 14.7307 20.1198 17.1318 18.5183 19.0271C16.9167 20.9223 14.6959 22.1894 12.2494 22.6036ZM29.7485 17.4991C30.2126 17.4991 30.6577 17.3148 30.9859 16.9866C31.3141 16.6584 31.4984 16.2133 31.4984 15.7492C31.4984 15.2851 31.3141 14.84 30.9859 14.5118C30.6577 14.1837 30.2126 13.9993 29.7485 13.9993C29.2844 13.9993 28.8393 14.1837 28.5111 14.5118C28.183 14.84 27.9986 15.2851 27.9986 15.7492C27.9986 16.2133 28.183 16.6584 28.5111 16.9866C28.8393 17.3148 29.2844 17.4991 29.7485 17.4991Z" fill="#65979A"/>
</svg>
